<?xml version="1.0" encoding="utf-8"?>
<!-- Generator: Adobe Illustrator 22.1.0, SVG Export Plug-In . SVG Version: 6.00 Build 0)  -->
<svg version="1.1" id="_x31__1_" xmlns="http://www.w3.org/2000/svg" xmlns:xlink="http://www.w3.org/1999/xlink" x="0px" y="0px"
	 viewBox="0 0 1920 900" style="enable-background:new 0 0 1920 900;" xml:space="preserve">
<style type="text/css">
	.st0{fill:#6E7FF3;}
	.st1{opacity:0.2;fill:url(#SVGID_1_);}
	.st2{opacity:0.6;fill:url(#SVGID_2_);}
	.st3{opacity:0.102;}
	.st4{fill-rule:evenodd;clip-rule:evenodd;fill:#61D7FA;}
	.st5{opacity:0.149;}
	.st6{fill-rule:evenodd;clip-rule:evenodd;fill:#75D7F4;}
	.st7{opacity:0.502;}
	.st8{opacity:0.702;}
	.st9{opacity:0.302;}
</style>
<g id="Layer_14">
	<rect class="st0" width="1920" height="900"/>
</g>
<g id="Layer_13">
	<linearGradient id="SVGID_1_" gradientUnits="userSpaceOnUse" x1="960" y1="900" x2="960" y2="0">
		<stop  offset="0" style="stop-color:#4997FB"/>
		<stop  offset="1" style="stop-color:#61D7FA"/>
	</linearGradient>
	<polygon class="st1" points="0,900 0,554 110,421 193,466 527,312 768,324 1003,166 1199,188.5 1271,121 1491,174 1661,0 1920,0 
		1920,900 	"/>
</g>
<g id="Layer_12">
	<linearGradient id="SVGID_2_" gradientUnits="userSpaceOnUse" x1="960" y1="900" x2="960" y2="86">
		<stop  offset="0" style="stop-color:#4997FB"/>
		<stop  offset="1" style="stop-color:#61D7FA"/>
	</linearGradient>
	<polygon class="st2" points="0,620.2 67,567 209,730 312,641.2 462.5,682 603,537 688,582 757,498 901,444 1058,212 1208,242 
		1330,168 1527,224.6 1606,186 1761,224.6 1920,86 1920,900 0,900 	"/>
</g>
<g id="bg_1_">
	<g id="point_1_">
		<g id="Ellipse_1_copy_2" class="st3">
			<g>
				<ellipse transform="matrix(0.8112 -0.5847 0.5847 0.8112 -318.8837 146.201)" class="st4" cx="67" cy="567" rx="43" ry="43"/>
			</g>
		</g>
		<g id="Ellipse_1_copy" class="st5">
			<g>
				<ellipse transform="matrix(0.3827 -0.9239 0.9239 0.3827 -482.479 411.9171)" class="st4" cx="67" cy="567" rx="23" ry="23"/>
			</g>
		</g>
		<g id="Ellipse_1">
			<g>
				<path class="st6" d="M67,559c-4.4,0-8,3.6-8,8s3.6,8,8,8c4.4,0,8-3.6,8-8S71.4,559,67,559z"/>
			</g>
		</g>
	</g>
	<g id="point_copy_1_">
		<g id="Ellipse_1_copy_2_1_" class="st3">
			<g>
				<path class="st4" d="M312,620.2c-14.2,0-25.8,11.6-25.8,25.8c0,14.2,11.6,25.8,25.8,25.8s25.8-11.6,25.8-25.8
					C337.8,631.8,326.2,620.2,312,620.2z"/>
			</g>
		</g>
		<g id="Ellipse_1_copy_1_" class="st5">
			<g>
				<path class="st4" d="M312,632.2c-7.6,0-13.8,6.2-13.8,13.8c0,7.6,6.2,13.8,13.8,13.8s13.8-6.2,13.8-13.8
					C325.8,638.4,319.6,632.2,312,632.2z"/>
			</g>
		</g>
		<g id="Ellipse_1_1_">
			<g>
				<path class="st6" d="M312,641.2c-2.7,0-4.8,2.1-4.8,4.8c0,2.7,2.1,4.8,4.8,4.8c2.7,0,4.8-2.1,4.8-4.8
					C316.8,643.3,314.7,641.2,312,641.2z"/>
			</g>
		</g>
	</g>
	<g id="point_copy_2_1_" class="st7">
		<g id="Ellipse_1_copy_2_2_" class="st3">
			<g>
				
					<ellipse transform="matrix(0.9637 -0.2669 0.2669 0.9637 -64.161 151.9951)" class="st4" cx="527" cy="312" rx="64.5" ry="64.5"/>
			</g>
		</g>
		<g id="Ellipse_1_copy_2_" class="st5">
			<g>
				
					<ellipse transform="matrix(0.9637 -0.2669 0.2669 0.9637 -64.1611 151.9952)" class="st4" cx="527" cy="312" rx="34.5" ry="34.5"/>
			</g>
		</g>
		<g id="Ellipse_1_2_">
			<g>
				<path class="st6" d="M527,300c-6.6,0-12,5.4-12,12c0,6.6,5.4,12,12,12c6.6,0,12-5.4,12-12C539,305.4,533.6,300,527,300z"/>
			</g>
		</g>
	</g>
	<g id="point_copy_3_1_" class="st8">
		<g id="Ellipse_1_copy_2_3_" class="st3">
			<g>
				
					<ellipse transform="matrix(0.9871 -0.1602 0.1602 0.9871 -9.0563 259.6546)" class="st4" cx="1606" cy="186" rx="64.5" ry="64.5"/>
			</g>
		</g>
		<g id="Ellipse_1_copy_3_" class="st5">
			<g>
				
					<ellipse transform="matrix(0.9239 -0.3827 0.3827 0.9239 51.0705 628.7483)" class="st4" cx="1606" cy="186" rx="34.5" ry="34.5"/>
			</g>
		</g>
		<g id="Ellipse_1_3_">
			<g>
				<ellipse transform="matrix(0.9239 -0.3827 0.3827 0.9239 51.0707 628.749)" class="st6" cx="1606" cy="186" rx="12" ry="12"/>
			</g>
		</g>
	</g>
	<g id="point_copy_4_1_">
		<g id="Ellipse_1_copy_2_4_" class="st3">
			<g>
				
					<ellipse transform="matrix(9.853817e-02 -0.9951 0.9951 9.853817e-02 370.3781 1296.8639)" class="st4" cx="901" cy="444" rx="33.6" ry="33.6"/>
			</g>
		</g>
		<g id="Ellipse_1_copy_4_" class="st5">
			<g>
				<circle class="st4" cx="901" cy="444" r="18"/>
			</g>
		</g>
		<g id="Ellipse_1_4_">
			<g>
				
					<ellipse transform="matrix(0.999 -4.531383e-02 4.531383e-02 0.999 -19.1938 41.2838)" class="st6" cx="901" cy="444" rx="6.3" ry="6.3"/>
			</g>
		</g>
	</g>
	<g id="point_copy_5_1_">
		<g id="Ellipse_1_copy_2_5_" class="st3">
			<g>
				
					<ellipse transform="matrix(0.9871 -0.1602 0.1602 0.9871 -20.2971 172.2092)" class="st4" cx="1058" cy="212" rx="23.5" ry="23.5"/>
			</g>
		</g>
		<g id="Ellipse_1_copy_5_" class="st5">
			<g>
				<path class="st4" d="M1058,199.4c-6.9,0-12.6,5.6-12.6,12.6c0,6.9,5.6,12.6,12.6,12.6c6.9,0,12.6-5.6,12.6-12.6
					C1070.6,205.1,1064.9,199.4,1058,199.4z"/>
			</g>
		</g>
		<g id="Ellipse_1_5_">
			<g>
				<path class="st6" d="M1058,207.6c-2.4,0-4.4,2-4.4,4.4c0,2.4,2,4.4,4.4,4.4s4.4-2,4.4-4.4C1062.4,209.6,1060.4,207.6,1058,207.6
					z"/>
			</g>
		</g>
	</g>
	<g id="point_copy_6_1_" class="st9">
		<g id="Ellipse_1_copy_2_6_" class="st3">
			<g>
				<path class="st4" d="M1271,93.9c-15,0-27.1,12.1-27.1,27.1c0,15,12.1,27.1,27.1,27.1c15,0,27.1-12.1,27.1-27.1
					C1298.1,106,1286,93.9,1271,93.9z"/>
			</g>
		</g>
		<g id="Ellipse_1_copy_6_" class="st5">
			<g>
				<path class="st4" d="M1271,106.5c-8,0-14.5,6.5-14.5,14.5c0,8,6.5,14.5,14.5,14.5c8,0,14.5-6.5,14.5-14.5
					C1285.5,113,1279,106.5,1271,106.5z"/>
			</g>
		</g>
		<g id="Ellipse_1_6_">
			<g>
				
					<ellipse transform="matrix(0.9975 -7.088971e-02 7.088971e-02 0.9975 -5.38 90.4052)" class="st6" cx="1271" cy="121" rx="5.1" ry="5.1"/>
			</g>
		</g>
	</g>
</g>
</svg>
